PathFileType	4	(X/Y/Z)	C:/Users/opensim2020/Desktop/walking_exp_matlab/subject02_walking12_straight_03.trc	
DataRate	CameraRate	NumFrames	NumMarkers	Units	OrigDataRate	OrigDataStartFrame	OrigNumFrames	
100.00	100.00	5	42	mm	100.00	1605	127	
Frame#	Time	LFHD			RFHD			LBHD			RBHD			C7			T10			CLAV			STRN			RBAK			LSHO			LUPA			LELB			LFRM			LWRA			LWRB			LFIN			RSHO			RUPA			RELB			RFRM			RWRA			RWRB			RFIN			LASI			RASI			LPSI			RPSI			LTHI			LKNE			LTIB			LANK			LHEE			LTOE			RTHI			RKNE			RTIB			RANK			RHEE			RTOE			*39			*40			*41			
		X1	Y1	Z1	X2	Y2	Z2	X3	Y3	Z3	X4	Y4	Z4	X5	Y5	Z5	X6	Y6	Z6	X7	Y7	Z7	X8	Y8	Z8	X9	Y9	Z9	X10	Y10	Z10	X11	Y11	Z11	X12	Y12	Z12	X13	Y13	Z13	X14	Y14	Z14	X15	Y15	Z15	X16	Y16	Z16	X17	Y17	Z17	X18	Y18	Z18	X19	Y19	Z19	X20	Y20	Z20	X21	Y21	Z21	X22	Y22	Z22	X23	Y23	Z23	X24	Y24	Z24	X25	Y25	Z25	X26	Y26	Z26	X27	Y27	Z27	X28	Y28	Z28	X29	Y29	Z29	X30	Y30	Z30	X31	Y31	Z31	X32	Y32	Z32	X33	Y33	Z33	X34	Y34	Z34	X35	Y35	Z35	X36	Y36	Z36	X37	Y37	Z37	X38	Y38	Z38	X39	Y39	Z39	X40	Y40	Z40	X41	Y41	Z41	X42	Y42	Z42	

80	0.790	-969.12775	410.87018	1746.77063	-837.06970	359.84595	1714.23499	-1030.76599	292.14377	1677.39172	-905.16962	229.26440	1644.44751	-970.61548	212.64548	1528.43884	-971.51593	163.90248	1251.22327	-979.59503	352.65546	1462.59314	-980.40808	407.35001	1291.08447	-914.40417	156.33185	1349.52490	-1147.47742	284.30093	1514.44177	-1242.01868	278.14975	1319.91431	-1270.31934	298.19107	1179.99695	-1284.06299	371.92789	1066.55981	-1248.45142	483.75101	989.07745	-1284.12915	445.67142	966.72009	-1282.43884	495.95557	921.76447	-784.18567	283.89523	1484.53235	-707.59766	247.65100	1294.45447	-693.57855	253.12401	1146.58777	-676.17444	284.02994	1029.86694	-693.65399	339.86493	906.73108	-667.98419	289.41031	899.48859	-661.52081	329.48972	839.78156	-1120.68005	382.72516	990.42908	-864.17682	403.53760	982.09888	-1019.77069	183.20647	1035.69971	-904.67981	184.90042	1037.53088	-1185.06677	349.49802	679.26611	-1172.47424	354.05548	496.16452	-1155.13977	213.55017	379.73990	-1125.22815	91.61270	194.75603	-1065.00085	62.37032	185.13533	-1171.87549	176.75119	72.83234	-801.18378	360.50558	673.44745	-852.70532	377.12030	466.54703	-851.88531	333.31583	281.92542	-898.51263	307.45349	92.86515	-955.35486	270.45877	40.76064	-883.90924	458.09558	39.53911	-914.24615	283.47336	1806.50928	-3360.29077	2845.22803	1034.33972			 
81	0.800	-968.51599	422.66763	1748.27600	-835.97083	371.61273	1715.78967	-1029.69836	303.82913	1678.91296	-904.29132	240.67036	1645.87085	-969.22278	224.06288	1530.02625	-969.27130	175.02037	1253.01172	-978.47729	364.01517	1464.00757	-978.85126	418.39273	1292.41968	-912.11407	167.59038	1351.68213	-1146.23401	295.42938	1515.58789	-1240.06213	287.20026	1320.74536	-1267.75342	304.49689	1180.43799	-1281.64209	372.46735	1063.61450	-1247.40881	481.33252	981.19257	-1282.19128	441.42209	960.42841	-1281.44275	489.36447	913.17047	-782.93115	296.11673	1486.77771	-705.13818	262.44049	1296.87976	-690.33923	269.95453	1148.93811	-673.66730	304.08261	1032.94165	-691.92792	364.05374	911.87268	-665.70630	313.85883	902.79956	-659.83472	355.95358	844.46130	-1117.91760	394.33664	993.34808	-861.53058	413.31226	983.16168	-1018.33862	194.11499	1037.56104	-903.13800	195.54573	1039.07727	-1183.00671	365.65131	682.18500	-1169.92212	374.81219	498.80240	-1152.89392	238.29781	377.16959	-1122.43896	123.22280	187.71700	-1062.00159	93.75252	176.99026	-1168.66992	213.89967	70.30400	-800.52161	364.90369	673.22333	-851.76447	379.02094	466.59265	-851.30164	333.32745	282.19324	-898.58728	307.51318	92.99460	-955.43347	270.26523	41.00872	-883.82367	458.04684	39.51491	-913.14844	295.33997	1808.10986	-3357.45459	2845.95459	1034.23975			 
82	0.810	-967.79211	434.45862	1749.47144	-834.98395	383.30984	1717.13855	-1028.66187	315.51752	1680.18640	-903.11975	252.48122	1647.57422	-967.80255	235.57758	1531.64539	-967.02716	185.79315	1254.63013	-977.34503	375.29419	1465.20886	-977.18359	429.38574	1293.55286	-909.88269	178.81093	1353.63403	-1145.03882	306.60223	1516.52283	-1238.24353	296.46085	1321.40173	-1264.71387	310.76157	1180.65759	-1279.25757	372.88541	1060.95618	-1246.44934	478.34283	973.22583	-1280.42627	436.56717	954.33502	-1280.44653	482.13959	904.82739	-781.82019	308.12045	1488.95447	-702.68182	276.86963	1299.25732	-687.12128	286.63898	1151.23071	-671.04767	324.35751	1036.01831	-690.33203	387.39398	916.72070	-663.50946	338.35150	906.31537	-658.14978	382.54318	849.47119	-1114.73401	406.28253	996.03027	-858.63318	423.06168	983.86353	-1017.18024	205.06157	1039.19067	-901.84521	206.20764	1040.34668	-1181.51416	381.69431	685.21289	-1167.44641	395.19513	501.14819	-1150.92603	263.08398	373.99371	-1119.67932	155.34854	180.17690	-1059.34973	126.35026	167.91557	-1165.62231	252.15230	67.37873	-799.88696	369.26959	673.06342	-851.16205	381.05701	466.28900	-851.27527	334.41782	282.15488	-898.69995	307.67163	93.10416	-955.35675	269.62985	41.50211	-883.71149	458.02615	39.46634	-912.15991	307.25745	1809.40442	-3357.48853	2845.79126	1034.25964			 
83	0.820	-966.69928	446.32355	1750.46350	-834.07751	395.11450	1718.32849	-1027.62512	327.15268	1681.22217	-901.87592	264.78928	1648.97070	-966.40857	246.96907	1532.93079	-964.88617	196.74356	1255.98804	-976.23895	386.61331	1466.24731	-975.46826	440.33939	1294.41370	-907.74463	189.93260	1355.37219	-1143.84192	317.64288	1517.05750	-1236.67676	305.97397	1321.90625	-1262.40247	317.27695	1180.77527	-1277.01587	373.31131	1058.37842	-1245.46558	474.57495	965.44897	-1278.68835	431.54526	948.65833	-1279.56836	474.46976	896.99890	-780.78320	319.98752	1491.12964	-700.22437	291.46967	1301.60413	-683.94965	303.16003	1153.49695	-668.53052	344.62793	1039.44312	-688.86084	411.25256	922.17792	-661.40857	362.69513	909.98328	-656.70734	408.63931	854.48157	-1111.38062	418.42380	998.40259	-855.64777	432.63107	984.40125	-1016.25189	216.01669	1040.60986	-900.76678	216.71901	1041.36389	-1180.22742	397.61276	688.14221	-1165.04028	415.14420	502.97385	-1149.13574	287.82776	370.26721	-1117.09290	188.48619	171.91980	-1056.93359	159.85135	158.11186	-1162.96057	291.17944	64.76212	-799.36322	373.68430	672.99402	-850.55676	383.64069	466.18637	-851.03436	335.61075	282.20197	-898.70789	307.85043	93.23659	-955.85822	270.61801	41.24290	-883.59094	457.99796	39.43445	-911.30927	319.15048	1810.57190	-3357.33350	2845.82349	1034.50989			 
84	0.830	-965.68408	458.01413	1751.07263	-833.27924	407.02161	1719.31165	-1026.67432	338.80661	1682.03625	-900.91302	276.47260	1649.99792	-965.15118	258.41190	1533.90552	-962.93390	207.63791	1257.18555	-975.09137	397.85660	1467.06140	-973.71765	451.24783	1295.13049	-905.65674	201.16541	1356.87915	-1142.65710	328.86499	1517.53064	-1234.90747	315.50726	1322.03137	-1259.81116	323.81677	1180.95483	-1274.92676	373.63171	1055.98193	-1244.59766	470.57864	957.97461	-1277.03650	426.21579	943.43860	-1278.82117	466.37244	889.73566	-779.65967	331.77716	1492.84985	-697.89380	305.49765	1303.62598	-680.58911	319.60764	1155.59387	-665.89545	364.82669	1042.59229	-687.14966	434.66684	927.69263	-659.23883	386.93295	913.96600	-655.05121	434.96323	860.11926	-1107.98438	431.24780	1000.46631	-852.62909	442.17569	984.60095	-1015.54059	227.03259	1041.85107	-899.99103	227.19203	1042.16345	-1178.97180	413.46252	690.83759	-1162.90210	434.57626	504.87546	-1147.28381	312.54749	366.00058	-1114.75940	222.58369	163.03510	-1054.56177	194.34361	147.71217	-1160.75830	330.81506	62.08186	-798.72119	378.40244	673.13184	-850.01178	385.91315	465.79819	-850.80310	337.16852	282.21747	-898.77429	308.01941	93.36512	-955.96753	270.62238	41.39635	-883.45453	457.98331	39.39464	-910.61011	331.08145	1811.56689	-3360.36426	2845.17798	1034.18567			 
